<svg width="21" height="17" viewBox="0 0 21 17" fill="none" xmlns="http://www.w3.org/2000/svg">
<path d="M1 8.5L0.47271 9.03335C0.3302 8.89246 0.25 8.7004 0.25 8.5C0.25 8.2996 0.3302 8.10754 0.47271 7.96665L1 8.5ZM8.05892 0.466648C8.35348 0.175433 8.82834 0.178147 9.11956 0.472709C9.41077 0.767271 9.40806 1.24214 9.1135 1.53335L8.05892 0.466648ZM9.1135 15.4666C9.40806 15.7579 9.41077 16.2327 9.11956 16.5273C8.82834 16.8219 8.35348 16.8246 8.05892 16.5334L9.1135 15.4666ZM21 9.25H1V7.75H21V9.25ZM0.47271 7.96665L8.05892 0.466648L9.1135 1.53335L1.52729 9.03335L0.47271 7.96665ZM1.52729 7.96665L9.1135 15.4666L8.05892 16.5334L0.47271 9.03335L1.52729 7.96665Z" fill="#122B3E"/>
</svg>
