<svg width="44" height="32" viewBox="0 0 44 32" fill="none" xmlns="http://www.w3.org/2000/svg">
<path d="M7.88906 10.4453V12H1.85V10.4453H7.88906ZM2.40469 0.625V12H0.44375V0.625H2.40469ZM7.1 5.375V6.90625H1.85V5.375H7.1ZM7.85 0.625V2.1875H1.85V0.625H7.85ZM17.4734 0.625H19.4266V8.22656C19.4266 9.09115 19.2391 9.8151 18.8641 10.3984C18.4891 10.9818 17.9786 11.4219 17.3328 11.7188C16.6922 12.0104 15.976 12.1562 15.1844 12.1562C14.3667 12.1562 13.6375 12.0104 12.9969 11.7188C12.3563 11.4219 11.851 10.9818 11.4813 10.3984C11.1167 9.8151 10.9344 9.09115 10.9344 8.22656V0.625H12.8875V8.22656C12.8875 8.77344 12.9813 9.22396 13.1688 9.57812C13.3563 9.92708 13.6219 10.1849 13.9656 10.3516C14.3094 10.5182 14.7156 10.6016 15.1844 10.6016C15.6531 10.6016 16.0568 10.5182 16.3953 10.3516C16.7391 10.1849 17.0047 9.92708 17.1922 9.57812C17.3797 9.22396 17.4734 8.77344 17.4734 8.22656V0.625ZM23.1594 0.625H27.1828C28.0474 0.625 28.7844 0.755208 29.3938 1.01562C30.0031 1.27604 30.4693 1.66146 30.7922 2.17188C31.1203 2.67708 31.2844 3.30208 31.2844 4.04688C31.2844 4.61458 31.1802 5.11458 30.9719 5.54688C30.7635 5.97917 30.4693 6.34375 30.0891 6.64062C29.7089 6.93229 29.2557 7.15885 28.7297 7.32031L28.1359 7.60938H24.5188L24.5031 6.05469H27.2141C27.6828 6.05469 28.0734 5.97135 28.3859 5.80469C28.6984 5.63802 28.9328 5.41146 29.0891 5.125C29.2505 4.83333 29.3313 4.50521 29.3313 4.14062C29.3313 3.74479 29.2531 3.40104 29.0969 3.10938C28.9458 2.8125 28.7115 2.58594 28.3938 2.42969C28.076 2.26823 27.6724 2.1875 27.1828 2.1875H25.1203V12H23.1594V0.625ZM29.6516 12L26.9797 6.89062L29.0344 6.88281L31.7453 11.8984V12H29.6516ZM43.9078 6V6.625C43.9078 7.48438 43.7958 8.25521 43.5719 8.9375C43.3479 9.61979 43.0276 10.2005 42.6109 10.6797C42.1995 11.1589 41.7047 11.526 41.1266 11.7812C40.5484 12.0312 39.9078 12.1562 39.2047 12.1562C38.5068 12.1562 37.8688 12.0312 37.2906 11.7812C36.7177 11.526 36.2203 11.1589 35.7984 10.6797C35.3766 10.2005 35.0484 9.61979 34.8141 8.9375C34.5849 8.25521 34.4703 7.48438 34.4703 6.625V6C34.4703 5.14062 34.5849 4.3724 34.8141 3.69531C35.0432 3.01302 35.3661 2.43229 35.7828 1.95312C36.2047 1.46875 36.7021 1.10156 37.275 0.851562C37.8531 0.596354 38.4911 0.46875 39.1891 0.46875C39.8922 0.46875 40.5328 0.596354 41.1109 0.851562C41.6891 1.10156 42.1865 1.46875 42.6031 1.95312C43.0198 2.43229 43.3401 3.01302 43.5641 3.69531C43.7932 4.3724 43.9078 5.14062 43.9078 6ZM41.9469 6.625V5.98438C41.9469 5.34896 41.8844 4.78906 41.7594 4.30469C41.6396 3.8151 41.4599 3.40625 41.2203 3.07812C40.9859 2.74479 40.6969 2.49479 40.3531 2.32812C40.0094 2.15625 39.6214 2.07031 39.1891 2.07031C38.7568 2.07031 38.3714 2.15625 38.0328 2.32812C37.6943 2.49479 37.4052 2.74479 37.1656 3.07812C36.9313 3.40625 36.7516 3.8151 36.6266 4.30469C36.5016 4.78906 36.4391 5.34896 36.4391 5.98438V6.625C36.4391 7.26042 36.5016 7.82292 36.6266 8.3125C36.7516 8.80208 36.9339 9.21615 37.1734 9.55469C37.4182 9.88802 37.7099 10.1406 38.0484 10.3125C38.387 10.4792 38.7724 10.5625 39.2047 10.5625C39.6422 10.5625 40.0302 10.4792 40.3688 10.3125C40.7073 10.1406 40.9938 9.88802 41.2281 9.55469C41.4625 9.21615 41.6396 8.80208 41.7594 8.3125C41.8844 7.82292 41.9469 7.26042 41.9469 6.625ZM20.2891 25.7109L18.7891 25.3438L19.4062 19.625H25.5391V21.2188H20.9688L20.6562 24.0078C20.8333 23.9036 21.0781 23.8021 21.3906 23.7031C21.7031 23.599 22.0599 23.5469 22.4609 23.5469C22.9974 23.5469 23.4766 23.6354 23.8984 23.8125C24.3255 23.9844 24.6875 24.237 24.9844 24.5703C25.2812 24.8984 25.5078 25.2995 25.6641 25.7734C25.8203 26.2422 25.8984 26.7708 25.8984 27.3594C25.8984 27.8854 25.8203 28.3776 25.6641 28.8359C25.513 29.2943 25.2839 29.6979 24.9766 30.0469C24.6693 30.3958 24.2812 30.6693 23.8125 30.8672C23.349 31.0599 22.7995 31.1562 22.1641 31.1562C21.6901 31.1562 21.2344 31.0885 20.7969 30.9531C20.3646 30.8125 19.9766 30.6068 19.6328 30.3359C19.2891 30.0599 19.013 29.7214 18.8047 29.3203C18.5964 28.9141 18.4766 28.4479 18.4453 27.9219H20.2891C20.3359 28.2917 20.4375 28.6068 20.5938 28.8672C20.7552 29.1224 20.9688 29.3177 21.2344 29.4531C21.5 29.5885 21.8073 29.6562 22.1562 29.6562C22.474 29.6562 22.7474 29.6016 22.9766 29.4922C23.2057 29.3776 23.3958 29.2161 23.5469 29.0078C23.7031 28.7943 23.8177 28.5443 23.8906 28.2578C23.9688 27.9714 24.0078 27.6536 24.0078 27.3047C24.0078 26.9714 23.9635 26.6667 23.875 26.3906C23.7917 26.1146 23.6641 25.875 23.4922 25.6719C23.3255 25.4688 23.1146 25.3125 22.8594 25.2031C22.6042 25.0885 22.3099 25.0312 21.9766 25.0312C21.5286 25.0312 21.1849 25.0964 20.9453 25.2266C20.7109 25.3568 20.4922 25.5182 20.2891 25.7109Z" fill="#085895"/>
</svg>
